<svg xmlns="http://www.w3.org/2000/svg" version="1.1" xmlns:xlink="http://www.w3.org/1999/xlink" xmlns:svgjs="http://svgjs.com/svgjs" width="512" height="512" x="0" y="0" viewBox="0 0 512 512" style="enable-background:new 0 0 512 512" xml:space="preserve" class=""><g><g xmlns="http://www.w3.org/2000/svg"><g><g fill="#fff"><path d="m408.8 508.1h-218.1s5-37.8 2-67.7c0 0 0-1.7-4.8-3.1-5-1.5-15.2-2.8-36-1.8-40.8 2-49.8-2-53.8-98.6 0 0-23.9-10-28.9-18.9-5-9 25.9-38.8 38.8-60.7.3-.5.6-1 .9-1.5h320.5c-11.9 42.2-43.3 71.9-49.5 91.2-8.9 27.6-2 120.2 28.9 161.1z" fill="#ffffff" data-original="#ffffff"></path><path d="m187.9 437.2s40.7 2.1 61.6-35.7" fill="#ffffff" data-original="#ffffff"></path></g><path d="m244.8 255.5h-227.9v-135.9l227.9 76z" fill="#ffc550" data-original="#ffc550"></path><path d="m267.2 255.5h227.9v-135.9l-227.9 76z" fill="#ffc550" data-original="#ffc550"></path><path d="m135 222s25.5-91.4 129.2-91.4 129.2 91.4 129.2 91.4-29.9 70.3-129.2 70.3-129.2-70.3-129.2-70.3z" fill="#ffffff" data-original="#ffffff"></path><circle cx="264.2" cy="211.5" fill="#93d2ff" r="56.2" data-original="#93d2ff"></circle><path d="m264.2 130.6c-103.7 0-129.2 91.4-129.2 91.4s119.5-128.3 258.4 0c0 0-25.5-91.4-129.2-91.4z" fill="#ffc7ca" data-original="#ffc7ca"></path><circle cx="264.2" cy="211.5" fill="#78757a" r="27.2" data-original="#78757a"></circle></g><g><path d="m440.7 373.8c-2.2 0-3.9-1.8-3.9-3.9v-15.6c0-2.2 1.8-3.9 3.9-3.9 2.2 0 3.9 1.8 3.9 3.9v15.6c0 2.1-1.7 3.9-3.9 3.9z" fill="#000000" data-original="#000000"></path><path d="m440.7 413.3c-2.2 0-3.9-1.8-3.9-3.9v-15.6c0-2.2 1.8-3.9 3.9-3.9 2.2 0 3.9 1.8 3.9 3.9v15.6c0 2.1-1.7 3.9-3.9 3.9z" fill="#000000" data-original="#000000"></path><path d="m468.2 385.7h-15.6c-2.2 0-3.9-1.8-3.9-3.9 0-2.2 1.8-3.9 3.9-3.9h15.6c2.2 0 3.9 1.8 3.9 3.9 0 2.2-1.7 3.9-3.9 3.9z" fill="#000000" data-original="#000000"></path><path d="m428.7 385.7h-15.6c-2.2 0-3.9-1.8-3.9-3.9 0-2.2 1.8-3.9 3.9-3.9h15.6c2.2 0 3.9 1.8 3.9 3.9.1 2.2-1.7 3.9-3.9 3.9z" fill="#000000" data-original="#000000"></path><path d="m73.4 74.4c-2.2 0-3.9-1.8-3.9-3.9v-15.6c0-2.2 1.8-3.9 3.9-3.9s3.9 1.8 3.9 3.9v15.6c.1 2.1-1.7 3.9-3.9 3.9z" fill="#000000" data-original="#000000"></path><path d="m73.4 113.9c-2.2 0-3.9-1.8-3.9-3.9v-15.6c0-2.2 1.8-3.9 3.9-3.9s3.9 1.8 3.9 3.9v15.6c.1 2.1-1.7 3.9-3.9 3.9z" fill="#000000" data-original="#000000"></path><path d="m101 86.4h-15.6c-2.2 0-3.9-1.8-3.9-3.9s1.8-3.9 3.9-3.9h15.6c2.2 0 3.9 1.8 3.9 3.9s-1.8 3.9-3.9 3.9z" fill="#000000" data-original="#000000"></path><path d="m61.5 86.4h-15.6c-2.2 0-3.9-1.8-3.9-3.9s1.8-3.9 3.9-3.9h15.6c2.2 0 3.9 1.8 3.9 3.9s-1.7 3.9-3.9 3.9z" fill="#000000" data-original="#000000"></path><path d="m428.7 23.4c-2.2 0-3.9-1.8-3.9-3.9v-15.6c0-2.2 1.8-3.9 3.9-3.9s3.9 1.8 3.9 3.9v15.6c.1 2.2-1.7 3.9-3.9 3.9z" fill="#000000" data-original="#000000"></path><path d="m428.7 62.9c-2.2 0-3.9-1.8-3.9-3.9v-15.6c0-2.2 1.8-3.9 3.9-3.9s3.9 1.8 3.9 3.9v15.6c.1 2.1-1.7 3.9-3.9 3.9z" fill="#000000" data-original="#000000"></path><path d="m456.2 35.4h-15.6c-2.2 0-3.9-1.8-3.9-3.9s1.8-3.9 3.9-3.9h15.6c2.2 0 3.9 1.8 3.9 3.9s-1.7 3.9-3.9 3.9z" fill="#000000" data-original="#000000"></path><path d="m416.8 35.4h-15.6c-2.2 0-3.9-1.8-3.9-3.9s1.8-3.9 3.9-3.9h15.6c2.2 0 3.9 1.8 3.9 3.9s-1.8 3.9-3.9 3.9z" fill="#000000" data-original="#000000"></path><path d="m193.6 120c-.7 0-1.5-.2-2.2-.7l-54.7-36.3c-1.8-1.2-2.3-3.6-1.1-5.5 1.2-1.8 3.6-2.3 5.5-1.1l54.7 36.3c1.8 1.2 2.3 3.6 1.1 5.5-.8 1.1-2.1 1.8-3.3 1.8z" fill="#000000" data-original="#000000"></path><path d="m332.8 120c-1.2 0-2.5-.6-3.2-1.7-1.3-1.8-.8-4.2.9-5.5l51.5-36.3c1.8-1.3 4.2-.8 5.5.9 1.3 1.8.8 4.2-.9 5.5l-51.5 36.3c-.7.5-1.5.8-2.3.8z" fill="#000000" data-original="#000000"></path><path d="m235.7 101.8c-1.6 0-3.1-1-3.7-2.6l-15.4-42.9c-.7-2 .3-4.3 2.4-5 2-.7 4.3.3 5 2.4l15.4 42.9c.7 2-.3 4.3-2.4 5-.4.1-.9.2-1.3.2z" fill="#000000" data-original="#000000"></path><path d="m293.5 101.8c-.5 0-1.1-.1-1.6-.3-2-.9-2.9-3.2-2-5.2l19-42.9c.9-2 3.2-2.9 5.2-2s2.9 3.2 2 5.2l-19 42.9c-.7 1.4-2.1 2.3-3.6 2.3z" fill="#000000" data-original="#000000"></path><g><path d="m190.7 512c-.2 0-.3 0-.5 0-2.2-.3-3.7-2.3-3.4-4.4 0-.4 4.8-36.8 2.1-65.7-.4-.2-1-.5-2.1-.9-4.3-1.3-13.8-2.7-34.7-1.7-17 .8-29.7.8-38.9-7.6-11.7-10.7-16.4-33.3-18.9-92.3-6.6-2.9-23.8-11.2-28.5-19.6-4.2-7.5 4.4-19 19.9-38.6 3.4-4.4 7-8.9 10.3-13.2 1.3-1.7 3.8-2.1 5.5-.8s2.1 3.8.8 5.5c-3.3 4.5-6.9 9-10.4 13.4-5.8 7.3-11.2 14.2-14.9 19.9-5.1 7.9-4.3 9.9-4.3 9.9 3.1 5.6 18.2 13.5 27 17.2 1.4.6 2.4 1.9 2.4 3.5 2.4 57.7 6.5 80.2 16.5 89.3 6.9 6.3 18.1 6.3 33.2 5.5 17.7-.9 30.3-.2 37.4 2 6.2 1.9 7.5 4.9 7.6 6.6 3 30-1.8 67-2 68.5-.4 2.1-2.1 3.5-4.1 3.5z" fill="#000000" data-original="#000000"></path><path d="m408.8 512c-1.2 0-2.4-.5-3.1-1.6-19.1-25.2-27.1-65.5-30.1-87.4-4.4-31.4-4.2-62.6.6-77.6 2.6-8.1 9.1-17.6 16.7-28.6 9.4-13.7 20-29.1 27.6-47.6.8-2 3.1-3 5.1-2.1 2 .8 3 3.1 2.1 5.1-7.9 19.3-19.3 35.8-28.4 49.1-7.2 10.5-13.4 19.5-15.7 26.5-4.4 13.8-4.6 44.2-.3 74.1 3 21.1 10.6 59.9 28.6 83.7 1.3 1.7 1 4.2-.8 5.5-.6.6-1.4.9-2.3.9z" fill="#000000" data-original="#000000"></path><path d="m189.3 441.2c-.9 0-1.4 0-1.6 0-2.2-.1-3.8-2-3.7-4.1.1-2.2 2-3.8 4.1-3.7 1.6.1 38.5 1.5 57.9-33.7 1.1-1.9 3.4-2.6 5.4-1.5 1.9 1.1 2.6 3.4 1.5 5.4-19.7 35.5-55.4 37.6-63.6 37.6z" fill="#000000" data-original="#000000"></path></g><path d="m361.2 168.2c-1.6 0-3.2-1-3.7-2.7-.7-2.1.4-4.3 2.5-5l134-44.7c2.1-.7 4.3.4 5 2.5s-.4 4.3-2.5 5l-134 44.7c-.5.1-.9.2-1.3.2z" fill="#000000" data-original="#000000"></path><path d="m495.1 259.5h-127.3c-2.2 0-3.9-1.8-3.9-3.9s1.8-3.9 3.9-3.9h127.3c2.2 0 3.9 1.8 3.9 3.9s-1.7 3.9-3.9 3.9z" fill="#000000" data-original="#000000"></path><path d="m166.2 173.3c-.4 0-.8-.1-1.2-.2l-149.4-49.8c-2.1-.7-3.2-2.9-2.5-5s2.9-3.2 5-2.5l149.3 49.8c2.1.7 3.2 2.9 2.5 5-.5 1.7-2 2.7-3.7 2.7z" fill="#000000" data-original="#000000"></path><path d="m160.5 259.5h-143.6c-2.2 0-3.9-1.8-3.9-3.9s1.8-3.9 3.9-3.9h143.7c2.2 0 3.9 1.8 3.9 3.9s-1.8 3.9-4 3.9z" fill="#000000" data-original="#000000"></path><path d="m393.4 226c-1 0-1.9-.4-2.7-1-97.9-90.5-185.5-51.6-229-20.3-1.8 1.3-4.2.9-5.5-.9s-.9-4.2.9-5.5c21.2-15.2 55.1-33.9 96.8-36.8 44.8-3.1 88.4 12.7 129.8 46.9-4-8.3-10.1-19-19.2-29.7-24.9-29.2-58.6-44.1-100.3-44.1s-75.4 14.8-100.3 44.1c-18.7 21.9-25.1 44.2-25.1 44.5-.6 2.1-2.8 3.3-4.9 2.7s-3.3-2.8-2.7-4.8c.3-1 6.8-23.9 26.5-47.2 18.2-21.5 51.4-47.1 106.5-47.1s88.3 25.6 106.5 47.1c19.7 23.2 26.2 46.2 26.5 47.2.5 1.7-.2 3.5-1.7 4.4-.7.3-1.4.5-2.1.5z" fill="#000000" data-original="#000000"></path><path d="m416.8 177c-1.7 0-3.3-1.1-3.8-2.8-.6-2.1.6-4.3 2.7-4.9l12.7-3.7c2.1-.6 4.3.6 4.9 2.7s-.6 4.3-2.7 4.9l-12.7 3.7c-.4.1-.8.1-1.1.1z" fill="#000000" data-original="#000000"></path><path d="m460.4 196.7h-12c-2.2 0-3.9-1.8-3.9-3.9 0-2.2 1.8-3.9 3.9-3.9h12c2.2 0 3.9 1.8 3.9 3.9.1 2.2-1.7 3.9-3.9 3.9z" fill="#000000" data-original="#000000"></path><path d="m428.1 233.7h-11.4c-2.2 0-3.9-1.8-3.9-3.9s1.8-3.9 3.9-3.9h11.4c2.2 0 3.9 1.8 3.9 3.9s-1.7 3.9-3.9 3.9z" fill="#000000" data-original="#000000"></path><path d="m68.7 163.6c-.6 0-1.1-.1-1.7-.4l-15-7c-2-.9-2.8-3.3-1.9-5.2.9-2 3.3-2.8 5.2-1.9l15 7c2 .9 2.8 3.3 1.9 5.2-.6 1.5-2.1 2.3-3.5 2.3z" fill="#000000" data-original="#000000"></path><path d="m104.2 194.4c-.3 0-.6 0-.9-.1l-12.6-2.9c-2.1-.5-3.5-2.6-3-4.7s2.6-3.5 4.7-3l12.6 2.9c2.1.5 3.5 2.6 3 4.7-.4 1.8-2 3.1-3.8 3.1z" fill="#000000" data-original="#000000"></path><path d="m61.5 230.6c-.2 0-.4 0-.5 0l-15.6-2.1c-2.2-.3-3.7-2.3-3.4-4.4.3-2.2 2.3-3.7 4.4-3.4l15.6 2.1c2.2.3 3.7 2.3 3.4 4.4-.3 2-2 3.4-3.9 3.4z" fill="#000000" data-original="#000000"></path><path d="m264.2 296.3c-52.5 0-85.8-19.7-104.4-36.1-20.3-18-28.1-35.8-28.4-36.6s-.4-1.7-.2-2.6c.3-1 6.8-23.9 26.5-47.2 18.2-21.5 51.4-47.1 106.5-47.1s88.3 25.6 106.5 47.1c19.7 23.2 26.2 46.2 26.5 47.2.2.9.2 1.8-.2 2.6-.3.8-8.1 18.6-28.4 36.6-18.6 16.4-51.9 36.1-104.4 36.1zm-125-74.6c2.1 4.2 9.9 18.6 26 32.8 17.6 15.5 49.1 33.9 98.9 33.9 49.9 0 81.3-18.4 98.9-33.9 16.1-14.2 24-28.5 26-32.8-1.7-5.2-8.7-24.3-24.7-43.1-24.9-29.2-58.6-44.1-100.3-44.1s-75.4 14.8-100.3 44.1c-15.8 18.9-22.8 38-24.5 43.1z" fill="#000000" data-original="#000000"></path><path d="m264.2 271.7c-33.2 0-60.2-27-60.2-60.2 0-16.1 6.3-31.2 17.6-42.6 1.5-1.5 4-1.5 5.6 0 1.5 1.5 1.5 4 0 5.6-9.9 9.9-15.3 23-15.3 37 0 28.8 23.5 52.3 52.3 52.3s52.3-23.5 52.3-52.3c0-14.9-6.4-29.1-17.5-39.1-1.6-1.4-1.8-3.9-.3-5.6 1.4-1.6 3.9-1.8 5.6-.3 12.8 11.4 20.2 27.8 20.2 44.9-.1 33.3-27.1 60.3-60.3 60.3z" fill="#000000" data-original="#000000"></path><path d="m264.2 242.7c-17.2 0-31.2-14-31.2-31.2s14-31.2 31.2-31.2 31.2 14 31.2 31.2-14 31.2-31.2 31.2zm0-54.5c-12.9 0-23.3 10.5-23.3 23.3 0 12.9 10.5 23.3 23.3 23.3 12.9 0 23.3-10.5 23.3-23.3 0-12.9-10.5-23.3-23.3-23.3z" fill="#000000" data-original="#000000"></path></g></g></g></svg>