<svg xmlns="http://www.w3.org/2000/svg" version="1.1" xmlns:xlink="http://www.w3.org/1999/xlink" xmlns:svgjs="http://svgjs.com/svgjs" width="512" height="512" x="0" y="0" viewBox="0 0 480 480" style="enable-background:new 0 0 512 512" xml:space="preserve" class=""><g><path xmlns="http://www.w3.org/2000/svg" d="m136 72c0 35.347656-28.652344 64-64 64s-64-28.652344-64-64 28.652344-64 64-64 64 28.652344 64 64zm0 0" fill="#ffe35b" data-original="#ffe35b"></path><path xmlns="http://www.w3.org/2000/svg" d="m472 72c0 35.347656-28.652344 64-64 64s-64-28.652344-64-64 28.652344-64 64-64 64 28.652344 64 64zm0 0" fill="#398ecc" data-original="#398ecc"></path><path xmlns="http://www.w3.org/2000/svg" d="m136 408c0 35.347656-28.652344 64-64 64s-64-28.652344-64-64 28.652344-64 64-64 64 28.652344 64 64zm0 0" fill="#ffe35b" data-original="#ffe35b"></path><path xmlns="http://www.w3.org/2000/svg" d="m472 408c0 35.347656-28.652344 64-64 64s-64-28.652344-64-64 28.652344-64 64-64 64 28.652344 64 64zm0 0" fill="#398ecc" data-original="#398ecc"></path><path xmlns="http://www.w3.org/2000/svg" d="m384 264.054688v-48.109376l-31.320312-10.371093c-2.222657-7.277344-5.136719-14.246094-8.65625-20.855469l13.304687-28.015625c-9.367187-13.167969-20.863281-24.664063-34.03125-34.03125l-28.015625 13.304687c-6.609375-3.519531-13.578125-6.433593-20.855469-8.65625l-10.371093-31.320312h-48.109376l-10.371093 31.320312-20.847657 8.65625-28.015624-13.304687c-13.167969 9.367187-24.671876 20.863281-34.03125 34.03125l13.304687 28.015625-8.65625 20.855469-31.328125 10.371093v48.109376l31.320312 10.371093 8.65625 20.855469-13.304687 28.015625c9.367187 13.167969 20.863281 24.671875 34.03125 34.03125l28.015625-13.304687 20.855469 8.65625 10.371093 31.320312h48.109376l10.371093-31.320312c7.277344-2.222657 14.246094-5.136719 20.855469-8.65625l28.015625 13.304687c13.167969-9.359375 24.664063-20.863281 34.03125-34.03125l-13.304687-28.015625c3.519531-6.609375 6.433593-13.578125 8.65625-20.855469zm0 0" fill="#ff6b6b" data-original="#ff6b6b"></path><path xmlns="http://www.w3.org/2000/svg" d="m328 240c0 48.601562-39.398438 88-88 88s-88-39.398438-88-88 39.398438-88 88-88 88 39.398438 88 88zm0 0" fill="#cccccc" data-original="#cccccc"></path><path xmlns="http://www.w3.org/2000/svg" d="m240 144c-52.9375 0-96 43.0625-96 96s43.0625 96 96 96 96-43.0625 96-96-43.0625-96-96-96zm0 176c-44.113281 0-80-35.886719-80-80s35.886719-80 80-80 80 35.886719 80 80-35.886719 80-80 80zm0 0" fill="#000000" data-original="#000000"></path><path xmlns="http://www.w3.org/2000/svg" d="m363.839844 152.0625c-9.902344-13.917969-21.984375-26-35.902344-35.902344-2.378906-1.6875-5.480469-1.9375-8.074219-.710937l-24.457031 11.605469c-4.78125-2.34375-9.6875-4.390626-14.664062-6.09375l-9.101563-27.480469c-1.082031-3.273438-4.144531-5.480469-7.585937-5.480469h-48.109376c-3.449218 0-6.503906 2.207031-7.59375 5.488281l-9.222656 27.847657-14.183594 5.886718-24.808593-11.78125c-2.59375-1.226562-5.695313-.976562-8.074219.710938-13.917969 9.902344-26 21.984375-35.902344 35.902344-1.6875 2.371093-1.953125 5.457031-.710937 8.074218l11.78125 24.808594-5.886719 14.183594-27.847656 9.222656c-3.289063 1.097656-5.496094 4.152344-5.496094 7.601562v48.109376c0 3.457031 2.207031 6.503906 5.488281 7.59375l27.847657 9.214843 5.886718 14.191407-11.78125 24.800781c-1.242187 2.617187-.976562 5.703125.703125 8.066406 9.902344 13.925781 21.992188 26.015625 35.910157 35.917969 2.378906 1.695312 5.480468 1.945312 8.074218.710937l24.808594-11.78125 14.183594 5.886719 9.222656 27.847656c1.097656 3.289063 4.152344 5.496094 7.601562 5.496094h48.109376c3.449218 0 6.503906-2.207031 7.59375-5.488281l9.105468-27.480469c4.988282-1.71875 9.894532-3.757812 14.660156-6.09375l24.457032 11.605469c2.601562 1.234375 5.703125.984375 8.074218-.710938 13.917969-9.902343 26-21.984375 35.902344-35.902343 1.6875-2.371094 1.953125-5.457032.710938-8.074219l-11.605469-24.457031c2.351563-4.78125 4.390625-9.695313 6.09375-14.671876l27.480469-9.09375c3.265625-1.074218 5.472656-4.128906 5.472656-7.578124v-48.109376c0-3.449218-2.207031-6.503906-5.488281-7.59375l-27.480469-9.105468c-1.703125-4.972656-3.75-9.878906-6.09375-14.660156l11.605469-24.457032c1.257812-2.617187.984375-5.695312-.703125-8.066406zm12.160156 69.664062v36.546876l-25.832031 8.550781c-2.464844.816406-4.382813 2.785156-5.144531 5.265625-2.015626 6.621094-4.734376 13.167968-8.0625 19.429687-1.183594 2.234375-1.25 4.90625-.167969 7.183594l11.246093 23.695313c-7.382812 9.664062-15.976562 18.257812-25.640624 25.640624l-23.6875-11.238281c-2.285157-1.089843-4.949219-1.03125-7.183594.167969-6.222656 3.3125-12.765625 6.03125-19.4375 8.070312-2.480469.761719-4.441406 2.671876-5.25 5.136719l-8.566406 25.824219h-36.546876l-8.558593-25.832031c-.726563-2.199219-2.382813-3.984375-4.519531-4.871094l-20.847657-8.65625c-2.097656-.855469-4.464843-.808594-6.496093.167969l-23.695313 11.246094c-9.664063-7.382813-18.265625-15.984376-25.640625-25.648438l11.246094-23.6875c.96875-2.039062 1.03125-4.40625.167968-6.496094l-8.65625-20.855468c-.886718-2.152344-2.671874-3.808594-4.871093-4.527344l-25.855469-8.566406v-36.546876l25.832031-8.558593c2.199219-.726563 3.984375-2.382813 4.871094-4.519531l8.65625-20.847657c.863281-2.097656.808594-4.457031-.167969-6.496093l-11.246094-23.695313c7.382813-9.664063 15.976563-18.257813 25.640626-25.640625l23.695312 11.246094c2.054688.976562 4.40625 1.03125 6.496094.167968l20.847656-8.65625c2.144531-.886718 3.800781-2.671874 4.519531-4.871093l8.582031-25.855469h36.546876l8.558593 25.832031c.816407 2.464844 2.777344 4.382813 5.257813 5.136719 6.628906 2.023438 13.167968 4.742188 19.429687 8.070312 2.234375 1.191407 4.894531 1.242188 7.183594.167969l23.695313-11.246093c9.664062 7.382812 18.257812 15.976562 25.640624 25.640624l-11.238281 23.6875c-1.089843 2.277344-1.023437 4.949219.167969 7.183594 3.328125 6.253906 6.046875 12.800782 8.070312 19.429688.753907 2.488281 2.671876 4.449218 5.136719 5.257812zm0 0" fill="#000000" data-original="#000000"></path><path xmlns="http://www.w3.org/2000/svg" d="m240 176c-22.054688 0-40 17.945312-40 40h16c0-13.230469 10.769531-24 24-24s24 10.769531 24 24-10.769531 24-24 24c-4.425781 0-8 3.574219-8 8v32h16v-24.808594c18.230469-3.71875 32-19.871094 32-39.191406 0-22.054688-17.945312-40-40-40zm0 0" fill="#000000" data-original="#000000"></path><path xmlns="http://www.w3.org/2000/svg" d="m232 296h16v16h-16zm0 0" fill="#000000" data-original="#000000"></path><path xmlns="http://www.w3.org/2000/svg" d="m72 144c39.703125 0 72-32.296875 72-72s-32.296875-72-72-72-72 32.296875-72 72 32.296875 72 72 72zm0-128c30.871094 0 56 25.128906 56 56s-25.128906 56-56 56-56-25.128906-56-56 25.128906-56 56-56zm0 0" fill="#000000" data-original="#000000"></path><path xmlns="http://www.w3.org/2000/svg" d="m408 0c-39.703125 0-72 32.296875-72 72s32.296875 72 72 72 72-32.296875 72-72-32.296875-72-72-72zm0 128c-30.871094 0-56-25.128906-56-56s25.128906-56 56-56 56 25.128906 56 56-25.128906 56-56 56zm0 0" fill="#000000" data-original="#000000"></path><path xmlns="http://www.w3.org/2000/svg" d="m72 480c39.703125 0 72-32.296875 72-72s-32.296875-72-72-72-72 32.296875-72 72 32.296875 72 72 72zm0-128c30.871094 0 56 25.128906 56 56s-25.128906 56-56 56-56-25.128906-56-56 25.128906-56 56-56zm0 0" fill="#000000" data-original="#000000"></path><path xmlns="http://www.w3.org/2000/svg" d="m408 336c-39.703125 0-72 32.296875-72 72s32.296875 72 72 72 72-32.296875 72-72-32.296875-72-72-72zm0 128c-30.871094 0-56-25.128906-56-56s25.128906-56 56-56 56 25.128906 56 56-25.128906 56-56 56zm0 0" fill="#000000" data-original="#000000"></path><path xmlns="http://www.w3.org/2000/svg" d="m432 40h-40v16h20.6875l-42.34375 42.34375 11.3125 11.3125 42.34375-42.34375v20.6875h16v-40c0-4.425781-3.574219-8-8-8zm0 0" fill="#000000" data-original="#000000"></path><path xmlns="http://www.w3.org/2000/svg" d="m56 88v16h40c4.425781 0 8-3.574219 8-8v-40h-16v20.6875l-42.34375-42.34375-11.3125 11.3125 42.34375 42.34375zm0 0" fill="#000000" data-original="#000000"></path><path xmlns="http://www.w3.org/2000/svg" d="m416 376h-16v24h-24v16h24v24h16v-24h24v-16h-24zm0 0" fill="#000000" data-original="#000000"></path><path xmlns="http://www.w3.org/2000/svg" d="m40 400h64v16h-64zm0 0" fill="#000000" data-original="#000000"></path><path xmlns="http://www.w3.org/2000/svg" d="m24 232h16v16h-16zm0 0" fill="#000000" data-original="#000000"></path><path xmlns="http://www.w3.org/2000/svg" d="m24 200h16v16h-16zm0 0" fill="#000000" data-original="#000000"></path><path xmlns="http://www.w3.org/2000/svg" d="m24 168h16v16h-16zm0 0" fill="#000000" data-original="#000000"></path><path xmlns="http://www.w3.org/2000/svg" d="m24 296h16v16h-16zm0 0" fill="#000000" data-original="#000000"></path><path xmlns="http://www.w3.org/2000/svg" d="m24 264h16v16h-16zm0 0" fill="#000000" data-original="#000000"></path><path xmlns="http://www.w3.org/2000/svg" d="m56 232h16v16h-16zm0 0" fill="#000000" data-original="#000000"></path><path xmlns="http://www.w3.org/2000/svg" d="m440 232h16v16h-16zm0 0" fill="#000000" data-original="#000000"></path><path xmlns="http://www.w3.org/2000/svg" d="m440 264h16v16h-16zm0 0" fill="#000000" data-original="#000000"></path><path xmlns="http://www.w3.org/2000/svg" d="m440 296h16v16h-16zm0 0" fill="#000000" data-original="#000000"></path><path xmlns="http://www.w3.org/2000/svg" d="m440 168h16v16h-16zm0 0" fill="#000000" data-original="#000000"></path><path xmlns="http://www.w3.org/2000/svg" d="m440 200h16v16h-16zm0 0" fill="#000000" data-original="#000000"></path><path xmlns="http://www.w3.org/2000/svg" d="m408 232h16v16h-16zm0 0" fill="#000000" data-original="#000000"></path><path xmlns="http://www.w3.org/2000/svg" d="m232 24h16v16h-16zm0 0" fill="#000000" data-original="#000000"></path><path xmlns="http://www.w3.org/2000/svg" d="m264 24h16v16h-16zm0 0" fill="#000000" data-original="#000000"></path><path xmlns="http://www.w3.org/2000/svg" d="m296 24h16v16h-16zm0 0" fill="#000000" data-original="#000000"></path><path xmlns="http://www.w3.org/2000/svg" d="m168 24h16v16h-16zm0 0" fill="#000000" data-original="#000000"></path><path xmlns="http://www.w3.org/2000/svg" d="m200 24h16v16h-16zm0 0" fill="#000000" data-original="#000000"></path><path xmlns="http://www.w3.org/2000/svg" d="m232 56h16v16h-16zm0 0" fill="#000000" data-original="#000000"></path><path xmlns="http://www.w3.org/2000/svg" d="m232 440h16v16h-16zm0 0" fill="#000000" data-original="#000000"></path><path xmlns="http://www.w3.org/2000/svg" d="m200 440h16v16h-16zm0 0" fill="#000000" data-original="#000000"></path><path xmlns="http://www.w3.org/2000/svg" d="m168 440h16v16h-16zm0 0" fill="#000000" data-original="#000000"></path><path xmlns="http://www.w3.org/2000/svg" d="m296 440h16v16h-16zm0 0" fill="#000000" data-original="#000000"></path><path xmlns="http://www.w3.org/2000/svg" d="m264 440h16v16h-16zm0 0" fill="#000000" data-original="#000000"></path><path xmlns="http://www.w3.org/2000/svg" d="m232 408h16v16h-16zm0 0" fill="#000000" data-original="#000000"></path></g></svg>