<svg xmlns="http://www.w3.org/2000/svg" version="1.1" xmlns:xlink="http://www.w3.org/1999/xlink" xmlns:svgjs="http://svgjs.com/svgjs" width="512" height="512" x="0" y="0" viewBox="0 0 512 512" style="enable-background:new 0 0 512 512" xml:space="preserve" class=""><g transform="matrix(1,0,0,1,60,0)"><path xmlns="http://www.w3.org/2000/svg" d="m387.128906 179.21875c.566406-94.613281-75.027344-171.089844-169.789062-171.714844-94.941406-.625-172.105469 76.027344-172.105469 170.671875v31.078125l-36.394531 79.664063c-4.441406 9.714843 2.671875 20.757812 13.367187 20.757812h41.574219v81.535157c0 25.121093 25.351562 42.339843 48.757812 33.117187l66.449219-26.1875v95.726563c0 7.425781 7.429688 12.566406 14.394531 9.957031l133.5-50.039063c8.15625-3.054687 13.558594-10.839844 13.558594-19.535156v-70.273438c0-37.050781 9.574219-73.339843 26.933594-106.082031 12.460938-23.507812 19.585938-50.269531 19.753906-78.675781zm0 0" fill="#fedfc5" data-original="#fedfc5" class=""></path><path xmlns="http://www.w3.org/2000/svg" d="m217.339844 7.503906c-12.449219-.082031-24.585938 1.175782-36.289063 3.617188 78.097657 16.234375 136.066407 85.203125 135.566407 168.097656-.167969 28.40625-7.292969 55.167969-19.753907 78.671875-17.355469 32.742187-26.933593 69.035156-26.933593 106.082031v70.273438c0 8.699218-5.402344 16.480468-13.554688 19.539062l-77.386719 29.003906v11.074219c0 7.425781 7.429688 12.566407 14.394531 9.957031l133.503907-50.035156c8.152343-3.058594 13.554687-10.839844 13.554687-19.539062v-70.273438c0-37.046875 9.578125-73.339844 26.9375-106.082031 12.460938-23.503906 19.582032-50.265625 19.753906-78.671875.5625-94.613281-75.03125-171.089844-169.792968-171.714844zm0 0" fill="#fecbaa" data-original="#fecbaa" class=""></path><path xmlns="http://www.w3.org/2000/svg" d="m234.445312 178.832031c0-9.730469-7.898437-17.617187-17.648437-17.617187-9.746094 0-17.648437 7.886718-17.648437 17.617187 0 9.734375 7.902343 17.621094 17.648437 17.621094 9.75 0 17.648437-7.886719 17.648437-17.621094zm0 0" fill="#7f7ce8" data-original="#7f7ce8" class=""></path><path xmlns="http://www.w3.org/2000/svg" d="m343.316406 52.84375c-33.375-33.757812-78.097656-52.523438-125.925781-52.83984375-.40625-.00390625-.808594-.00390625-1.21875-.00390625-47.5 0-92.152344 18.390625-125.847656 51.863281-33.914063 33.691407-52.589844 78.550781-52.589844 126.3125v29.445313l-35.71875 78.179687c-3.148437 6.890625-2.582031 14.808594 1.511719 21.179688 4.101562 6.382812 11.082031 10.195312 18.675781 10.195312h34.078125v74.035157c0 14.265624 7.046875 27.582031 18.851562 35.617187 11.828126 8.050781 26.839844 9.726563 40.15625 4.476563l56.195313-22.148438v84.710938c0 5.941406 2.917969 11.511718 7.804687 14.898437 3.082032 2.136719 6.699219 3.234375 10.351563 3.234375 2.148437 0 4.308594-.382812 6.375-1.15625l133.5-50.035156c11.019531-4.128906 18.425781-14.804688 18.425781-26.558594v-70.277344c0-34.9375 9.011719-70.40625 26.0625-102.566406 1.9375-3.660156.546875-8.199219-3.113281-10.140625s-8.199219-.546875-10.140625 3.113281c-18.195312 34.316406-27.8125 72.214844-27.8125 109.59375v70.277344c0 5.535156-3.488281 10.5625-8.683594 12.511719l-133.503906 50.035156c-1.351562.507813-2.40625-.007813-2.914062-.359375-.503907-.351562-1.351563-1.148438-1.351563-2.570312v-95.726563c0-2.484375-1.226563-4.804687-3.277344-6.203125-2.050781-1.394531-4.664062-1.6875-6.972656-.777344l-66.449219 26.191406c-8.820312 3.476563-18.375 2.410157-26.210937-2.921874-7.8125-5.320313-12.292969-13.78125-12.292969-23.21875v-81.535157c0-4.144531-3.355469-7.5-7.5-7.5h-41.578125c-2.5 0-4.707031-1.203125-6.054687-3.304687-1.34375-2.085938-1.519532-4.578125-.488282-6.835938l36.398438-79.664062c.445312-.980469.675781-2.042969.675781-3.117188v-31.078125c0-43.738281 17.105469-84.816406 48.160156-115.667969 30.867188-30.664062 71.765625-47.507812 115.28125-47.507812.371094 0 .746094 0 1.113281.003906 43.828126.289063 84.796876 17.472656 115.359376 48.386719 30.558593 30.90625 47.242187 72.023437 46.980468 115.78125-.089844 14.972656-2.210937 29.792969-6.300781 44.042969-1.144531 3.980468 1.15625 8.136718 5.136719 9.28125 3.984375 1.140625 8.136718-1.160156 9.28125-5.140625 4.46875-15.570313 6.785156-31.75 6.882812-48.09375.285156-47.765625-17.9375-92.660157-51.3125-126.417969zm0 0" fill="#000000" data-original="#000000" class=""></path><path xmlns="http://www.w3.org/2000/svg" d="m105.980469 242.726562c7.226562 12.496094 22.480469 19.097657 43.597656 19.097657 4.097656 0 8.410156-.25 12.933594-.75 1.957031-.21875 3.949219-.496094 5.953125-.804688.90625 2.292969 1.835937 4.546875 2.824218 6.71875 11.621094 25.550781 27.78125 39.621094 45.511719 39.621094 17.726563 0 33.886719-14.070313 45.511719-39.621094.871094-1.914062 1.695312-3.894531 2.503906-5.90625 1.988282.285157 3.960938.546875 5.902344.746094 4.183594.429687 8.191406.640625 12.015625.640625 21.699219 0 37.425781-6.835938 44.886719-19.742188 4.804687-8.304687 5.738281-18.667968 2.710937-29.976562-2.980469-11.125-9.582031-22.945312-19.054687-34.710938 9.46875-11.6875 16.074218-23.347656 18.957031-34.105468 2.933594-10.9375 2.027344-20.964844-2.613281-28.992188-8.628906-14.917968-28.707032-21.4375-56.53125-18.34375-1.960938.214844-3.949219.496094-5.953125.800782-.90625-2.292969-1.835938-4.546876-2.824219-6.714844-11.621094-25.550782-27.785156-39.625-45.511719-39.625-17.726562 0-33.890625 14.074218-45.511719 39.625-.871093 1.914062-1.699218 3.894531-2.503906 5.90625-1.988281-.289063-3.960937-.546875-5.90625-.746094-27.914062-2.859375-48.121094 3.921875-56.898437 19.097656-4.804688 8.308594-5.742188 18.671875-2.710938 29.980469 2.980469 11.125 9.578125 22.945313 19.050781 34.710937-9.46875 11.6875-16.074218 23.347657-18.953124 34.105469-2.933594 10.9375-2.03125 20.960938 2.613281 28.988281zm142.675781 18.050782c-8.914062 19.59375-20.523438 30.832031-31.855469 30.832031-11.335937 0-22.945312-11.238281-31.859375-30.832031-.519531-1.148438-1.023437-2.332032-1.523437-3.519532 10.328125-2.554687 21.054687-6.136718 31.890625-10.644531 11.707031 4.972657 23.316406 8.871094 34.476562 11.554688-.375.875-.742187 1.757812-1.128906 2.609375zm-79.066406-81.945313c0-8.117187.382812-16.09375 1.109375-23.847656 7.347656-5.378906 15.210937-10.523437 23.460937-15.277344 7.988282-4.605469 16.054688-8.710937 24.070313-12.296875 7.277343 3.324219 14.582031 7.070313 21.816406 11.242188 8 4.613281 15.59375 9.550781 22.6875 14.699218.832031 8.261719 1.273437 16.789063 1.273437 25.480469 0 8.121094-.382812 16.097657-1.109374 23.851563-7.347657 5.375-15.210938 10.519531-23.460938 15.277344-7.988281 4.605468-16.058594 8.710937-24.074219 12.296874-7.273437-3.324218-14.578125-7.074218-21.8125-11.246093-8.003906-4.609375-15.59375-9.550781-22.6875-14.695313-.832031-8.265625-1.273437-16.792968-1.273437-25.484375zm-14.695313 12.808594c-4.542969-3.957031-8.757812-7.976563-12.609375-12.011719 3.839844-4.011718 8.03125-8.019531 12.542969-11.964844-.152344 3.695313-.238281 7.417969-.238281 11.167969 0 4.304688.105468 8.578125.304687 12.808594zm18.582031-56.816406c1.371094-7.410157 3.097657-14.488281 5.152344-21.140625 6.769532 1.550781 13.742188 3.582031 20.835938 6.097656-4.28125 2.183594-8.550782 4.484375-12.796875 6.929688-4.519531 2.605468-8.917969 5.320312-13.191407 8.113281zm63.609376-14.894531c6.175781-2.136719 12.257812-3.921876 18.171874-5.324219 1.777344 5.871093 3.289063 12.082031 4.539063 18.542969-3.972656-2.570313-8.058594-5.070313-12.261719-7.492188-3.464844-2-6.953125-3.90625-10.449218-5.726562zm41.617187 46.097656c4.542969 3.957031 8.757813 7.976562 12.609375 12.011718-3.839844 4.011719-8.03125 8.015626-12.542969 11.960938.148438-3.695312.234375-7.414062.234375-11.167969.003906-4.304687-.101562-8.574219-.300781-12.804687zm-31.777344 64.929687c4.523438-2.605469 8.921875-5.320312 13.195313-8.113281-1.371094 7.410156-3.097656 14.484375-5.152344 21.136719-6.769531-1.546875-13.742188-3.582031-20.835938-6.09375 4.277344-2.183594 8.550782-4.484375 12.792969-6.929688zm-60.867187 1.054688c3.46875 1.996093 6.957031 3.90625 10.453125 5.726562-6.179688 2.132813-12.257813 3.921875-18.171875 5.324219-1.777344-5.871094-3.289063-12.082031-4.539063-18.542969 3.96875 2.566407 8.058594 5.070313 12.257813 7.492188zm129.78125-15.378907c2.003906 7.480469 1.597656 13.734376-1.207032 18.582032-5.5625 9.621094-21.007812 13.878906-42.386718 11.6875-.796875-.082032-1.609375-.191406-2.414063-.289063 3.289063-11.070312 5.734375-23.132812 7.269531-35.820312 8.914063-6.882813 17-14.082031 24.066407-21.382813 7.300781 9.40625 12.382812 18.675782 14.671875 27.222656zm-43.097656-105.128906c4.003906-.445312 7.796874-.664062 11.351562-.664062 15.289062 0 26.171875 4.050781 30.542969 11.609375 2.640625 4.566406 3.011719 10.488281 1.105469 17.601562-2.203126 8.226563-7.261719 17.316407-14.535157 26.621094-7.109375-7.355469-15.273437-14.585937-24.320312-21.507813-1.503907-11.761718-3.800781-22.964843-6.828125-33.316406.898437-.117187 1.796875-.246094 2.683594-.34375zm-87.800782-14.613281c8.914063-19.59375 20.523438-30.832031 31.855469-30.832031 11.335937 0 22.945313 11.238281 31.859375 30.832031.519531 1.148437 1.023438 2.332031 1.523438 3.519531-10.332032 2.554688-21.054688 6.136719-31.890626 10.644532-11.707031-4.972657-23.316406-8.871094-34.476562-11.554688.371094-.875.742188-1.757812 1.128906-2.609375zm-67.183594 44.144531c-2.003906-7.480468-1.601562-13.734375 1.207032-18.585937 4.601562-7.960938 15.976562-12.25 31.882812-12.25 3.3125 0 6.820313.1875 10.503906.5625.796876.082031 1.609376.195312 2.414063.292969-3.289063 11.066406-5.738281 23.132812-7.269531 35.816406-8.914063 6.882812-17 14.085937-24.066406 21.382812-7.300782-9.40625-12.382813-18.671875-14.671876-27.21875zm.097657 76.582032c2.203125-8.230469 7.261719-17.320313 14.53125-26.621094 7.113281 7.351562 15.277343 14.582031 24.324219 21.507812 1.507812 11.761719 3.800781 22.964844 6.828124 33.316406-.898437.117188-1.796874.246094-2.683593.34375-21.230469 2.355469-36.503907-1.632812-41.890625-10.949218-2.644532-4.566406-3.015625-10.488282-1.109375-17.597656zm0 0" fill="#000000" data-original="#000000" class=""></path><path xmlns="http://www.w3.org/2000/svg" d="m216.796875 203.953125c13.867187 0 25.148437-11.269531 25.148437-25.121094 0-13.851562-11.28125-25.117187-25.148437-25.117187-13.863281 0-25.144531 11.265625-25.144531 25.117187 0 13.851563 11.28125 25.121094 25.144531 25.121094zm0-35.238281c5.597656 0 10.148437 4.539062 10.148437 10.117187 0 5.582031-4.550781 10.121094-10.148437 10.121094-5.59375 0-10.144531-4.539063-10.144531-10.121094 0-5.578125 4.550781-10.117187 10.144531-10.117187zm0 0" fill="#000000" data-original="#000000" class=""></path></g></svg>