<svg xmlns="http://www.w3.org/2000/svg" version="1.1" xmlns:xlink="http://www.w3.org/1999/xlink" xmlns:svgjs="http://svgjs.com/svgjs" width="512" height="512" x="0" y="0" viewBox="0 0 512.002 512.002" style="enable-background:new 0 0 512 512" xml:space="preserve" class=""><g><g xmlns="http://www.w3.org/2000/svg"><g clip-rule="evenodd" fill-rule="evenodd"><path d="m104.662 127.055c3.059 11.417 13.406 19.357 25.226 19.357s22.167-7.939 25.226-19.357c3.059 11.417 13.405 19.357 25.226 19.357 11.82 0 22.167-7.939 25.226-19.357 3.059 11.417 13.406 19.357 25.225 19.357 11.821 0 22.166-7.939 25.226-19.357 3.059 11.417 13.405 19.357 25.226 19.357 11.82 0 22.166-7.939 25.225-19.357 3.059 11.417 13.406 19.357 25.226 19.357 11.821 0 22.167-7.939 25.226-19.357 3.059 11.417 13.406 19.357 25.226 19.357s22.167-7.939 25.226-19.357c.301 1.123.672 2.211 1.108 3.262-17.398-72.704-65.657-120.317-152.463-120.317s-135.065 47.613-152.463 120.318c.437-1.051.808-2.14 1.108-3.263z" fill="#a7bdcd" data-original="#a7bdcd" class=""></path><path d="m155.114 127.055c-3.059 11.417-13.406 19.357-25.226 19.357s-22.167-7.939-25.226-19.357c-.301 1.123-.672 2.211-1.108 3.262-3.316 13.858-5.511 28.628-6.638 44.154-.603 8.301-.9 16.819-.9 25.528 0 110.457 56.334 56.001 160 56.001s160 54.456 160-56.001c0-24.999-2.449-48.414-7.538-69.682-.436-1.051-.807-2.14-1.108-3.262-3.059 11.417-13.406 19.357-25.226 19.357s-22.167-7.939-25.226-19.357c-3.059 11.417-13.405 19.357-25.226 19.357-11.82 0-22.167-7.939-25.226-19.357-3.059 11.417-13.406 19.357-25.225 19.357-11.82 0-22.166-7.939-25.226-19.357-3.059 11.417-13.405 19.357-25.226 19.357-11.82 0-22.166-7.939-25.225-19.357-3.059 11.417-13.406 19.357-25.226 19.357-11.819 0-22.165-7.939-25.224-19.357z" fill="#ffdcd5" data-original="#ffdcd5" class=""></path><path d="m256.017 256.001c-103.666 0-160 54.456-160-56.001-.532 17.971.093 36.554 1.673 54.472 6.911 78.37 32.091 144.007 58.574 90.041-.47 4.176.032 9.475 1.3 15.329 8.112 37.442 47.595 97.583 64.916 31.609 0 13.837 6.466 51.048 33.534 51.048s33.534-37.211 33.534-51.048c17.325 65.989 56.822 5.806 64.921-31.634 1.264-5.844 1.764-11.134 1.294-15.303 26.796 54.604 52.328-11.178 58.909-90.041 1.494-17.902 2.011-36.477 1.345-54.472 0 110.456-56.334 56-160 56z" fill="#a7bdcd" data-original="#a7bdcd" class=""></path><path d="m97.689 254.471c-1.58-17.917-2.205-36.5-1.673-54.472 0-8.71.297-17.227.902-25.528h-.902c-22 0-40 17.999-40 40s18 40 40 40z" fill="#ffdcd5" data-original="#ffdcd5" class=""></path><path d="m289.548 391.45c0 13.837-6.466 51.048-33.534 51.048s-33.534-37.211-33.534-51.048c-17.321 65.974-56.804 5.833-64.916-31.609-51.684 23.248-94.539 64.515-119.392 117.899-6.117 10.629 1.487 24.261 14.047 24.261l138.929-.019h1.415c123.508-.42 175.133-55.897 193.631-124.934-10.116-6.523-20.72-12.286-31.724-17.233-8.1 37.441-47.597 97.624-64.922 31.635z" fill="#ffdcd5" data-original="#ffdcd5" class=""></path><path d="m386.194 377.049c-18.498 69.037-70.123 124.513-193.631 124.934l267.304-.037c11.579.007 19.589-12.093 14.677-22.845-19.528-42.641-50.52-77.657-88.35-102.052z" fill="#60a4ff" data-original="#60a4ff"></path><path d="m414.344 254.471c1.58-17.917 2.205-36.5 1.673-54.472 0-8.71-.297-17.227-.902-25.528h.902c22 0 40 17.999 40 40s-18 40-40 40z" fill="#ffdcd5" data-original="#ffdcd5" class=""></path></g><g><path d="m483.636 474.937c-20.12-43.933-52.391-80.866-92.625-106.66 10.464-9.286 19.045-28.799 25.589-58.298 3.178-14.327 5.623-29.979 7.265-46.122 23.855-3.775 42.152-24.483 42.152-49.385 0-24.722-18.039-45.298-41.643-49.288-.332-3.387-.713-6.727-1.146-10.02 3.005.81 6.147 1.248 9.369 1.248 5.522 0 10-4.478 10-10s-4.478-10-10-10c-6.244 0-11.832-3.619-14.488-9.085-6.603-27.32-17.319-50.685-32.098-69.854-29.401-38.136-73.137-57.473-129.994-57.473-38.126 0-70.728 8.886-96.898 26.412-4.589 3.072-5.817 9.284-2.744 13.873 3.074 4.589 9.285 5.817 13.873 2.744 22.818-15.281 51.676-23.029 85.769-23.029 88.683 0 126.095 52.071 140.972 106.539-2.485 5.904-8.304 9.873-14.843 9.873-7.281 0-13.682-4.911-15.566-11.944-1.171-4.372-5.133-7.412-9.659-7.412-4.525 0-8.487 3.04-9.659 7.411-1.885 7.033-8.286 11.945-15.566 11.945-7.281 0-13.683-4.911-15.566-11.944-1.171-4.372-5.133-7.412-9.659-7.412-4.525 0-8.487 3.04-9.659 7.411-1.885 7.033-8.286 11.945-15.567 11.945-7.28 0-13.682-4.912-15.566-11.945-1.172-4.371-5.134-7.411-9.659-7.411-4.526 0-8.488 3.04-9.659 7.412-1.884 7.033-8.285 11.944-15.566 11.944-7.28 0-13.682-4.912-15.566-11.945-1.172-4.371-5.133-7.411-9.659-7.411s-8.487 3.04-9.659 7.411c-1.885 7.033-8.286 11.945-15.566 11.945-7.281 0-13.683-4.911-15.566-11.944-1.171-4.372-5.133-7.412-9.659-7.412-4.525 0-8.487 3.04-9.659 7.411-1.885 7.033-8.286 11.945-15.567 11.945-6.64 0-12.537-4.093-14.955-10.147 1.616-5.944 3.437-11.68 5.488-17.172 1.933-5.174-.695-10.935-5.869-12.867-5.172-1.932-10.935.694-12.867 5.869-2.947 7.889-5.466 16.202-7.586 24.89-2.583 5.66-8.285 9.428-14.662 9.428-5.522 0-10 4.478-10 10s4.478 10 10 10c3.239 0 6.397-.443 9.417-1.261-.438 3.298-.827 6.641-1.163 10.027-23.619 3.977-41.674 24.561-41.674 49.294 0 25.031 18.486 45.824 42.524 49.442 1.704 16.057 4.184 31.611 7.366 45.842 6.599 29.506 15.186 49.001 25.607 58.245-39.876 25.457-72.01 61.877-92.245 105.169-4.47 8.093-4.364 17.69.309 25.77 4.73 8.18 13.194 13.063 22.642 13.063l407.642-.056h.016c8.905 0 17.115-4.5 21.963-12.04 4.826-7.518 5.499-16.849 1.789-24.971zm-37.619-260.465c0 13.221-8.597 24.471-20.493 28.456.829-14.459 1.008-29.022.492-43.119-.002-4.643-.093-9.206-.256-13.704 11.772 4.054 20.257 15.235 20.257 28.367zm-380 0c0-13.131 8.484-24.31 20.255-28.366-.166 4.496-.25 9.058-.253 13.686-.415 14.139-.145 28.74.763 43.226-12.038-3.904-20.765-15.225-20.765-28.546zm43.761-64.199c5.807 3.899 12.756 6.139 20.11 6.139 9.665 0 18.639-3.861 25.227-10.286 6.587 6.425 15.56 10.286 25.226 10.286 9.665 0 18.638-3.862 25.226-10.287 6.588 6.425 15.561 10.287 25.226 10.287 9.666 0 18.639-3.861 25.226-10.286 6.588 6.425 15.561 10.286 25.226 10.286s18.639-3.861 25.227-10.286c6.587 6.425 15.56 10.286 25.226 10.286 9.665 0 18.638-3.861 25.226-10.286 6.587 6.425 15.56 10.286 25.226 10.286 7.309 0 14.219-2.211 20.004-6.067 2.907 17.639 3.867 34.765 3.867 49.654 0 29.358-4.136 47.107-12.644 54.262-10.154 8.539-30.267 5.036-58.099.192-21.632-3.767-48.553-8.453-79.258-8.453s-57.626 4.687-79.258 8.453c-27.835 4.845-47.944 8.345-58.099-.192-8.508-7.154-12.644-24.903-12.644-54.262-.002-17.69 1.262-34.299 3.759-49.726zm6.121 157.203c-2.501-10.811-4.578-22.657-6.185-35.009 17.085 10.985 40.9 6.84 70.475 1.69 21.96-3.823 46.85-8.156 75.827-8.156s53.867 4.333 75.827 8.156c29.83 5.194 53.798 9.366 70.914-1.978-1.471 11.761-3.379 23.078-5.684 33.468-8.358 37.68-18.352 48.202-21.193 48.918-.565.115-4.994-1.935-11.14-14.458-2.143-4.366-7.112-6.56-11.781-5.193-4.667 1.362-7.678 5.886-7.134 10.718.795 7.059-2.74 22.709-11.033 38.965-8.537 16.734-17.698 25.339-22.597 26.253-4.097.767-9.329-8.049-12.977-21.938-1.277-4.864-5.968-8.016-10.952-7.379-4.986.644-8.72 4.89-8.72 9.918 0 8.145-4.188 41.048-23.534 41.048s-23.534-32.903-23.534-41.048c0-5.028-3.733-9.274-8.72-9.918-.433-.056-.862-.083-1.289-.083-4.485 0-8.497 3.021-9.663 7.462-3.647 13.891-8.864 22.709-12.977 21.938-4.898-.914-14.059-9.519-22.596-26.253-8.294-16.255-11.829-31.906-11.034-38.966.544-4.831-2.467-9.354-7.134-10.717-4.668-1.366-9.639.828-11.781 5.193-5.653 11.52-9.891 14.076-10.709 14.13-1.993-.169-11.944-9.02-20.676-46.761zm-63.68 184.526c-3.088 0-4.663-1.927-5.327-3.076-.546-.942-1.643-3.435-.053-6.197.145-.25.277-.506.398-.768 21.699-46.61 58.366-84.605 103.906-107.941 2.369 7.037 5.311 13.854 8.276 19.666 6.311 12.37 19.477 33.604 36.744 36.824 8.187 1.523 16.085-1.263 22.298-7.859.476 1.228.983 2.442 1.525 3.64 7.659 16.899 20.454 26.207 36.026 26.207s28.367-9.308 36.026-26.207c.542-1.197 1.05-2.412 1.525-3.64 6.212 6.596 14.111 9.381 22.299 7.859 17.268-3.222 30.433-24.455 36.744-36.825 2.968-5.818 5.915-12.646 8.285-19.692 4.626 2.369 9.16 4.888 13.596 7.552-22.844 74.189-82.757 110.337-182.924 110.438zm412.799-2.913c-.553.859-2.159 2.857-5.147 2.857-.002 0-.003 0-.004 0l-157.785.021c43.87-19.236 73.887-52.288 89.713-98.936 31.646 23.121 57.113 54.105 73.654 90.224 1.199 2.628.244 4.783-.431 5.834z" fill="#000000" data-original="#000000" class=""></path><ellipse cx="306.019" cy="217.249" rx="15" ry="20" fill="#000000" data-original="#000000" class=""></ellipse><ellipse cx="206.015" cy="217.249" rx="15" ry="20" fill="#000000" data-original="#000000" class=""></ellipse><path d="m256.017 324.753c18.071 0 33.96-12.191 38.638-29.646 1.43-5.335-1.736-10.818-7.07-12.248-5.337-1.431-10.818 1.737-12.248 7.07-2.339 8.729-10.283 14.824-19.319 14.824s-16.979-6.096-19.318-14.823c-1.428-5.334-6.909-8.503-12.247-7.071-5.335 1.429-8.501 6.912-7.071 12.247 4.675 17.456 20.562 29.647 38.635 29.647z" fill="#000000" data-original="#000000" class=""></path><path d="m132.213 75.87c5.522 0 10-4.478 10-10s-4.478-10-10-10h-.008c-5.522 0-9.996 4.478-9.996 10s4.481 10 10.004 10z" fill="#000000" data-original="#000000" class=""></path></g></g></g></svg>